# AST/ASF file generated using VICON BodyLanguage
# -----------------------------------------------
:version 1.10
:name VICON
:units
  mass 1.0
  length 0.45
  angle deg
:documentation
   .ast/.asf automatically generated from VICON data using
   VICON BodyBuilder and BodyLanguage model FoxedUp or BRILLIANT.MOD
:root
   order TX TY TZ RX RY RZ
   axis XYZ
   position 0 0 0  
   orientation 0 0 0 
:bonedata
  begin
     id 1 
     name lhipjoint
     direction 0.535335 -0.74333 0.401095 
     length 2.04549 
     axis 0 0 0  XYZ
  end
  begin
     id 2 
     name lfemur
     direction 0.34202 -0.939693 0  
     length 6.95643  
     axis 0 0 20  XYZ
    dof rx ry rz
    limits (-160.0 20.0)
           (-70.0 70.0)
           (-60.0 70.0)
  end
  begin
     id 3 
     name ltibia
     direction 0.34192 -0.939729 0   
     length 5.55969   
     axis 0 0 20   XYZ
    dof rx
    limits (-10.0 170.0)
  end
  begin
     id 4 
     name lfoot
     direction 0.216943 -0.596046 0.773088   
     length 2.27918   
     axis -90 7.62852e-016 20   XYZ
    dof rx rz
    limits (-45.0 90.0)
           (-70.0 20.0)
  end
  begin
     id 5 
     name ltoes
     direction 1.53519e-011 -4.21748e-011 1   
     length 1.05562   
     axis -90 7.62852e-016 20   XYZ
    dof rx
    limits (-90.0 20.0)
  end
  begin
     id 6 
     name rhipjoint
     direction -0.576368 -0.719173 0.38806   
     length 2.1142  
     axis 0 0 0  XYZ 
  end
  begin
     id 7 
     name rfemur
     direction -0.34202 -0.939693 0   
     length 7.07928   
     axis 0 0 -20   XYZ
    dof rx ry rz
    limits (-160.0 20.0)
           (-70.0 70.0)
           (-70.0 60.0)
  end
  begin
     id 8 
     name rtibia
     direction -0.34202 -0.939693 0   
     length 5.79974   
     axis 0 0 -20   XYZ
    dof rx
    limits (-10.0 170.0)
 end
 begin
     id 9 
     name rfoot
     direction -0.189288 -0.520065 0.832888   
     length 2.42173  
     axis -90 -7.62852e-016 -20   XYZ
    dof rx rz
    limits (-45.0 90.0)
           (-20.0 70.0)
  end
  begin
     id 10 
     name rtoes
     direction -1.53574e-011 -4.21658e-011 1   
     length 1.14469   
     axis -90 -7.62852e-016 -20   XYZ
    dof rx
    limits (-90.0 20.0)
  end
  begin
     id 11 
     name lowerback
     direction -0.00135702 0.993803 0.111144   
     length 1.91308   
     axis 0 0 0   XYZ
    dof rx ry rz
    limits (-20.0 45.0)
           (-30.0 30.0)
           (-30.0 30.0)
  end
  begin
     id 12 
     name upperback
     direction -0.0056745 0.999813 0.0184631   
     length 1.9212   
     axis 0 0 0   XYZ
    dof rx ry rz
    limits (-20.0 45.0)
           (-30.0 30.0)
           (-30.0 30.0)
  end
  begin
     id 13 
     name thorax
     direction -0.00733434 0.999426 -0.0330788   
     length 1.94196   
     axis 0 0 0   XYZ
    dof rx ry rz
    limits (-20.0 45.0)
           (-30.0 30.0)
           (-30.0 30.0)
  end
  begin
     id 14 
     name lowerneck
     direction 0.0563074 0.996944 -0.0541571   
     length 2.34257   
     axis 0 0 0   XYZ
    dof rx ry rz
    limits (-20.0 45.0)
           (-30.0 30.0)
           (-30.0 30.0)
  end
  begin
     id 15 
     name upperneck
     direction -0.0544519 0.976166 -0.210085   
     length 2.32506   
     axis 0 0 0   XYZ
    dof rx ry rz
    limits (-20.0 45.0)
           (-30.0 30.0)
           (-30.0 30.0)
  end
  begin
     id 16
     name head
     direction -0.0226035 0.997615 -0.0652205  
     length 2.3648  
     axis 0 0 0   XYZ
    dof rx ry rz
    limits (-20.0 45.0)
           (-30.0 30.0)
           (-30.0 30.0)
  end
  begin
     id 17 
     name lclavicle
     direction 0.92109 0.381297 -0.0787716  
     length 4.0487  
     axis 0 0 0   XYZ
    dof ry rz
    limits (-20.0 10.0)
           (0.0 20.0)
  end
  begin
     id 18 
     name lhumerus
     direction 1 -4.48986e-011 3.56724e-027   
     length 4.94991   
     axis 180 -30 -90   XYZ
    dof rx ry rz
    limits (-60.0 90.0)
           (-90.0 90.0)
           (-90.0 90.0)
  end
  begin
     id 19
     name lradius
     direction 1 -4.48981e-011 8.62147e-027   
     length 2.7606   
     axis 180 -30 -90   XYZ
    dof rx
    limits (-10.0 170.0)
  end
  begin
     id 20
     name lwrist
     direction 1 -4.48989e-011 1.59799e-026   
     length 1.3803   
     axis -1.17785e-014 90 90   XYZ
    dof ry
    limits (-180.0 0.0)
 end
  begin
     id 21 
     name lhand
     direction 1 -4.48896e-011 3.19599e-026   
     length 0.843936   
     axis -2.03931e-014 90 90   XYZ
    dof rx rz
    limits (-90.0 90.0)
           (-45.0 45.0)
  end
  begin
     id 22 
     name lfingers
     direction 1 -4.48887e-011 6.39197e-026   
     length 0.680403   
     axis -4.07862e-014 90 90   XYZ
    dof rx
    limits (0.0 90.0)
  end
  begin
     id 23
     name lthumb
     direction 0.707107 -6.348e-011 0.707107   
     length 0.976926   
     axis -90 45 2.85299e-015   XYZ
    dof rx rz
    limits (-45.0 45.0)
           (-45.0 45.0)
  end
  begin
     id 24 
     name rclavicle
     direction -0.951104 0.307692 -0.026953   
     length 4.21801  
     axis 0 0 0   XYZ 
    dof ry rz
    limits (-10.0 20.0)
           (-20.0 0.0)
  end
  begin
     id 25 
     name rhumerus
     direction -1 -4.4896e-011 -1.8171e-018  
     length 4.32982   
     axis 180 30 90   XYZ
    dof rx ry rz
    limits (-90.0 60.0)
           (-90.0 90.0)
           (-90.0 90.0)
  end
  begin
     id 26 
     name rradius
     direction -1 -4.48959e-011 8.25165e-027   
     length 3.20057   
     axis 180 30 90   XYZ
    dof rx
    limits (-10.0 170.0)
  end
  begin
     id 27 
     name rwrist
     direction -1 -4.48997e-011 1.59799e-026   
     length 1.60029   
     axis -1.17785e-014 -90 -90   XYZ
    dof ry
    limits (-180.0 0.0)
  end
  begin
     id 28
     name rhand
     direction -1 -4.49023e-011 3.19599e-026   
     length 0.960433   
     axis -2.03931e-014 -90 -90   XYZ
    dof rx rz
    limits (-90.0 90.0)
           (-45.0 45.0)
  end
  begin
     id 29
     name rfingers
     direction -1 -4.48802e-011 6.39197e-026   
     length 0.774326   
     axis -4.07862e-014 -90 -90   XYZ
    dof rx
    limits (0.0 90.0)
  end
  begin
     id 30
     name rthumb
     direction -0.707107 -6.34876e-011 0.707107   
     length 1.11178   
     axis -90 -45 -2.85299e-015   XYZ
    dof rx rz
    limits (-45.0 45.0)
           (-45.0 45.0)
  end
:hierarchy
  begin
    root lhipjoint rhipjoint lowerback
    lhipjoint lfemur
    lfemur ltibia
    ltibia lfoot
    lfoot ltoes
    rhipjoint rfemur
    rfemur rtibia
    rtibia rfoot
    rfoot rtoes
    lowerback upperback
    upperback thorax
    thorax lowerneck lclavicle rclavicle
    lowerneck upperneck
    upperneck head
    lclavicle lhumerus
    lhumerus lradius
    lradius lwrist
    lwrist lhand lthumb
    lhand lfingers
    rclavicle rhumerus
    rhumerus rradius
    rradius rwrist
    rwrist rhand rthumb
    rhand rfingers
end

#!OML:ASF C:\KaitlinTest1\Natural Motions\Nikki\Session 2\Nikki.ASF
:FULLY-SPECIFIED
:DEGREES
731
root 0.702596 16.5385 5.10581 -160.601 75.6377 -169.902
lowerback -7.93939 2.1186 0.116376
upperback -3.35967 2.97521 -2.38232
thorax 1.10693 1.52777 -2.25724
lowerneck -2.47588 -18.7715 -10.2891
upperneck 6.59577 34.3198 3.98352
head 118.12 75.0346 -83.5221
rclavicle -3.02541e-014 3.49861e-014
rhumerus 9.57199 -17.5823 -100.433
rradius 1.09057
rwrist 47.0525
rhand -21.2915 -15.7684
rfingers 7.12502
rthumb 5.09289 -45.6872
lclavicle -3.02541e-014 3.49861e-014
lhumerus -44.0687 17.9862 70.0566
lradius 22.623
lwrist -28.7301
lhand -37.0561 4.93677
lfingers 7.12502
lthumb -10.1288 34.673
rfemur -15.2662 -16.1753 23.0413
rtibia 25.7045
rfoot -15.2997 2.91946
rtoes -3.26007e-014
lfemur -22.0713 16.7039 -19.5533
ltibia 28.8987
lfoot -8.86918 -29.6996
ltoes 3.02153e-014
732
root 0.701107 16.536 5.10586 -160.792 75.4939 -170.07
lowerback -7.97591 2.15573 0.0698102
upperback -3.31435 3.0288 -2.40479
thorax 1.17496 1.55485 -2.24683
lowerneck -2.52903 -18.823 -10.3209
upperneck 6.57838 34.3351 4.00291
head 118.737 75.0184 -82.9942
rclavicle -4.81898e-014 1.35174e-014
rhumerus 9.65946 -17.7563 -100.44
rradius 0.926014
rwrist 47.1899
rhand -21.327 -15.8887
rfingers 7.12502
rthumb 5.05865 -45.8083
lclavicle -4.81898e-014 1.35174e-014
lhumerus -44.0672 17.7914 70.0942
lradius 22.5703
lwrist -28.5653
lhand -37.0368 4.90973
lfingers 7.12502
lthumb -10.1101 34.6468
rfemur -15.2295 -16.2473 23.0259
rtibia 25.7059
rfoot -15.3132 2.82746
rtoes -3.18055e-015
lfemur -22.0539 16.5107 -19.5448
ltibia 28.9242
lfoot -8.90601 -29.6391
ltoes -4.77083e-015
733
root 0.69342 16.5362 5.09871 -160.826 75.33 -170.042
lowerback -7.89378 2.20735 0.219172
upperback -3.29271 3.08502 -2.42972
thorax 1.16321 1.58137 -2.35388
lowerneck -2.55068 -18.9076 -10.352
upperneck 6.53747 34.1885 3.96109
head 118.331 75.045 -83.3697
rclavicle -1.59337e-014 2.38542e-015
rhumerus 9.60506 -17.9326 -100.345
rradius 0.882862
rwrist 47.1582
rhand -21.4573 -15.9978
rfingers 7.12502
rthumb 4.93284 -45.9204
lclavicle -1.59337e-014 2.38542e-015
lhumerus -44.2031 18.0819 69.7588
lradius 22.5966
lwrist -29.0853
lhand -36.7738 4.95529
lfingers 7.12502
lthumb -9.85645 34.7046
rfemur -15.1884 -16.5777 23.0295
rtibia 25.7166
rfoot -15.3122 3.02127
rtoes 6.36111e-015
lfemur -22.0137 16.3212 -19.5092
ltibia 28.9443
lfoot -8.92782 -29.6064
ltoes 3.18055e-015
734
root 0.691956 16.535 5.09771 -160.872 75.2319 -170.037
lowerback -7.87561 2.25837 0.20746
upperback -3.28096 3.1527 -2.41633
thorax 1.16691 1.61505 -2.32776
lowerneck -2.52898 -18.9542 -10.4362
upperneck 6.525 34.1446 3.93746
head 118.458 75.0405 -83.2503
rclavicle -3.34009e-014 -7.15625e-015
rhumerus 9.46262 -18.0936 -100.164
rradius 0.89954
rwrist 47.1739
rhand -21.4416 -16.0038
rfingers 7.12502
rthumb 4.94791 -45.926
lclavicle -3.34009e-014 -7.15625e-015
lhumerus -44.3004 18.0992 69.6645
lradius 22.4581
lwrist -29.1723
lhand -36.8643 4.84594
lfingers 7.12502
lthumb -9.94371 34.5911
rfemur -15.1406 -16.7265 23.0505
rtibia 25.741
rfoot -15.3755 3.04774
rtoes 1.19271e-014
lfemur -21.9815 16.2355 -19.4734
ltibia 28.9666
lfoot -8.9333 -29.62
ltoes -4.77083e-015
735
root 0.689464 16.5352 5.0956 -160.931 75.1245 -170.056
lowerback -7.86827 2.30977 0.232982
upperback -3.26497 3.21938 -2.43604
thorax 1.18471 1.64814 -2.35617
lowerneck -2.47968 -19.0214 -10.4734
upperneck 6.4741 33.8881 3.88338
head 117.625 75.1515 -84.0219
rclavicle -2.81199e-014 7.95139e-016
rhumerus 9.36307 -18.27 -100.082
rradius 0.881812
rwrist 47.2671
rhand -21.5602 -15.9729
rfingers 7.12502
rthumb 4.83347 -45.8978
lclavicle -2.81199e-014 7.95139e-016
lhumerus -44.4192 18.3219 69.399
lradius 22.4064
lwrist -29.5058
lhand -36.7548 4.67061
lfingers 7.12502
lthumb -9.83805 34.4208
rfemur -15.1203 -16.8314 23.0494
rtibia 25.7636
rfoot -15.331 3.06568
rtoes 8.98507e-014
lfemur -21.9629 16.1541 -19.4518
ltibia 28.9872
lfoot -8.93857 -29.6276
ltoes 5.08889e-014
736
root 0.687848 16.5341 5.09533 -161.027 75.0539 -170.083
lowerback -7.8489 2.34324 0.221796
upperback -3.22196 3.26377 -2.44418
thorax 1.22023 1.67002 -2.3539
lowerneck -2.51926 -19.0521 -10.5177
upperneck 6.44537 33.8443 3.86636
head 117.581 75.1811 -84.0939
rclavicle -1.18424e-014 -1.82882e-014
rhumerus 9.33811 -18.3621 -100.066
rradius 0.858971
rwrist 47.1241
rhand -21.5758 -16.0762
rfingers 7.12502
rthumb 4.81839 -46.0014
lclavicle -1.18424e-014 -1.82882e-014
lhumerus -44.536 18.6407 69.0229
lradius 22.1868
lwrist -30.1349
lhand -36.7463 4.6447
lfingers 7.12502
lthumb -9.82992 34.3953
rfemur -15.0617 -16.9198 23.0545
rtibia 25.8066
rfoot -15.3998 3.04479
rtoes 6.2816e-014
lfemur -21.905 16.0878 -19.4215
ltibia 29.0071
lfoot -8.97645 -29.6052
ltoes 1.11319e-014
737
root 0.685486 16.5333 5.09467 -161.143 75.01 -170.168
lowerback -7.84297 2.38271 0.201238
upperback -3.20819 3.31757 -2.44851
thorax 1.23265 1.69693 -2.3418
lowerneck -2.54681 -19.095 -10.5791
upperneck 6.42411 33.8019 3.82722
head 117.283 75.1837 -84.3751
rclavicle 1.52878e-014 -7.95139e-015
rhumerus 9.26963 -18.4516 -99.9556
rradius 0.774522
rwrist 47.015
rhand -21.6486 -15.9691
rfingers 7.12502
rthumb 4.74807 -45.8959
lclavicle 1.52878e-014 -7.95139e-015
lhumerus -44.737 18.8835 68.7687
lradius 22.2079
lwrist -30.2603
lhand -36.7458 4.42469
lfingers 7.12502
lthumb -9.8294 34.1753
rfemur -15.048 -16.9913 23.0405
rtibia 25.85
rfoot -15.4473 3.03647
rtoes 7.95139e-014
lfemur -21.8865 16.0598 -19.4264
ltibia 29.0213
lfoot -8.96184 -29.6295
ltoes 4.45278e-014
738
root 0.687163 16.531 5.09843 -161.279 74.9752 -170.297
lowerback -7.88512 2.40065 0.0748437
upperback -3.19894 3.35108 -2.43246
thorax 1.25898 1.7146 -2.24928
lowerneck -2.60532 -19.0986 -10.6538
upperneck 6.44821 34.0012 3.84766
head 118.048 75.1009 -83.7051
rclavicle 3.59505e-014 1.51076e-014
rhumerus 9.17306 -18.5044 -99.8702
rradius 0.729646
rwrist 46.9346
rhand -21.7835 -15.9948
rfingers 7.12502
rthumb 4.61784 -45.9245
lclavicle 3.59505e-014 1.51076e-014
lhumerus -44.8954 18.6231 68.826
lradius 22.2208
lwrist -29.9665
lhand -36.6663 4.50689
lfingers 7.12502
lthumb -9.75269 34.2611
rfemur -15.0429 -16.8095 23.0266
rtibia 25.8819
rfoot -15.432 2.78476
rtoes -2.38542e-014
lfemur -21.9072 16.1024 -19.4467
ltibia 29.045
lfoot -8.96308 -29.7403
ltoes -1.90833e-014
739
root 0.679617 16.5307 5.09354 -161.23 74.9437 -170.244
lowerback -7.81826 2.44206 0.203883
upperback -3.22267 3.39694 -2.47116
thorax 1.20901 1.73665 -2.36089
lowerneck -2.64812 -19.1044 -10.6965
upperneck 6.46885 34.1497 3.87256
head 118.482 75.0652 -83.3594
rclavicle 5.3404e-014 2.70347e-014
rhumerus 9.06559 -18.5674 -99.8557
rradius 0.757278
rwrist 46.7543
rhand -21.7813 -16.0258
rfingers 7.12502
rthumb 4.61991 -45.9554
lclavicle 5.3404e-014 2.70347e-014
lhumerus -45.0718 18.3887 68.8063
lradius 22.2616
lwrist -29.855
lhand -36.5029 4.69284
lfingers 7.12502
lthumb -9.59506 34.4543
rfemur -15.0828 -17.0102 23.0314
rtibia 25.9103
rfoot -15.4528 2.98043
rtoes -7.71285e-014
lfemur -21.9285 16.0895 -19.4631
ltibia 29.0589
lfoot -8.96537 -29.7633
ltoes 9.54166e-015
740
root 0.683133 16.5289 5.09834 -161.147 74.9142 -170.134
lowerback -7.87672 2.46133 0.133032
upperback -3.20032 3.42772 -2.44933
thorax 1.26037 1.75253 -2.2926
lowerneck -2.6861 -19.1134 -10.7355
upperneck 6.45895 34.1728 3.86553
head 118.399 75.088 -83.4793
rclavicle -1.032e-013 4.77083e-015
rhumerus 9.08984 -18.5952 -99.8578
rradius 0.666289
rwrist 46.671
rhand -21.8024 -15.9743
rfingers 7.12502
rthumb 4.59957 -45.9044
lclavicle -1.032e-013 4.77083e-015
lhumerus -45.2535 18.2696 68.7564
lradius 22.2932
lwrist -29.6428
lhand -36.5449 4.7162
lfingers 7.12502
lthumb -9.63553 34.4758
rfemur -15.0371 -16.725 23.0821
rtibia 25.9207
rfoot -15.4333 2.64213
rtoes -1.35174e-014
lfemur -21.9284 16.0841 -19.3895
ltibia 29.076
lfoot -8.92548 -29.7806
ltoes -4.45278e-014
741
root 0.679232 16.5299 5.09707 -161.261 74.9294 -170.273
lowerback -7.89564 2.48595 0.118172
upperback -3.20024 3.46282 -2.47372
thorax 1.27301 1.77036 -2.30532
lowerneck -2.74553 -19.1403 -10.758
upperneck 6.42752 34.1129 3.82506
head 117.748 75.1288 -84.1064
rclavicle 1.63314e-014 3.65764e-014
rhumerus 9.07234 -18.5981 -99.8546
rradius 0.592836
rwrist 46.6809
rhand -21.8788 -16.0304
rfingers 7.12502
rthumb 4.52578 -45.962
lclavicle 1.63314e-014 3.65764e-014
lhumerus -45.4185 18.214 68.6912
lradius 22.2617
lwrist -29.4469
lhand -36.6455 4.63514
lfingers 7.12502
lthumb -9.73259 34.3903
rfemur -15.0803 -16.7386 23.0463
rtibia 25.9157
rfoot -15.4098 2.65641
rtoes -8.5875e-014
lfemur -21.9737 16.049 -19.4533
ltibia 29.0896
lfoot -8.93191 -29.7427
ltoes 1.74931e-014
742
root 0.676638 16.5302 5.0957 -161.186 74.9301 -170.154
lowerback -7.84931 2.51089 0.155301
upperback -3.19664 3.4919 -2.46776
thorax 1.25416 1.78432 -2.31931
lowerneck -2.7968 -19.1725 -10.7715
upperneck 6.3972 34.0303 3.77521
head 116.753 75.1815 -85.0527
rclavicle 1.69231e-014 1.43125e-014
rhumerus 9.04129 -18.5877 -99.8316
rradius 0.508166
rwrist 46.5913
rhand -21.9769 -16.0537
rfingers 7.12502
rthumb 4.43105 -45.9873
lclavicle 1.69231e-014 1.43125e-014
lhumerus -45.6745 18.7194 68.1909
lradius 22.1409
lwrist -29.9692
lhand -36.6402 4.51949
lfingers 7.12502
lthumb -9.72747 34.2748
rfemur -15.0373 -16.665 23.0616
rtibia 25.9125
rfoot -15.4025 2.58233
rtoes -5.1684e-014
lfemur -21.9334 15.9644 -19.4018
ltibia 29.0949
lfoot -8.94071 -29.6419
ltoes 1.59028e-015
